<svg width="124" height="21" viewBox="0 0 124 21" fill="none" xmlns="http://www.w3.org/2000/svg">
<path d="M16.6267 2.18204C16.6267 3.38714 17.6036 4.36407 18.8087 4.36407C20.0138 4.36407 20.9907 3.38714 20.9907 2.18204C20.9907 0.976931 20.0138 0 18.8087 0C17.6036 0 16.6267 0.976931 16.6267 2.18204Z" fill="#F0F0F0"/>
<path fill-rule="evenodd" clip-rule="evenodd" d="M6.43353 0.542853L0.166561 6.54181C-0.138908 6.83421 -0.00386336 7.34846 0.40586 7.45305L1.99213 7.85797C1.99013 7.86747 1.9942 7.87399 2.00499 7.87719C3.94754 8.50359 4.00889 9.70346 3.93066 10.2645C3.16519 13.0187 3.82958 16.0944 5.94966 18.3092C9.13056 21.6322 14.3908 21.7661 17.7364 18.6236C21.022 15.4185 21.118 10.1575 17.9371 6.83446C15.8171 4.61971 12.7733 3.82158 9.98844 4.46593C9.42458 4.51962 8.22835 4.4061 7.68734 2.43784C7.68462 2.42692 7.67827 2.42257 7.66869 2.42415L7.33345 0.821727C7.24685 0.407826 6.739 0.250448 6.43353 0.542853ZM14.4944 15.2367C15.9021 13.8103 15.9272 11.5134 14.5324 10.0563C13.1376 8.59915 10.8418 8.52389 9.3552 9.86795C7.94743 11.2944 7.92228 13.5914 9.31709 15.0485C10.7119 16.5056 13.0078 16.5808 14.4944 15.2367Z" fill="#F0F0F0"/>
<path d="M35.092 17L33.986 13.864H29.576L28.47 17H27.14L30.626 7.06H32.936L36.422 17H35.092ZM29.996 12.66H33.566L32.026 8.264H31.536L29.996 12.66ZM39.0766 7.06V17H37.8166V7.06H39.0766ZM49.6541 7.06C50.5407 7.06 51.2874 7.31667 51.8941 7.83C52.5101 8.334 52.8181 9.12733 52.8181 10.21C52.8181 11.3393 52.5194 12.1467 51.9221 12.632C51.3247 13.108 50.5687 13.346 49.6541 13.346H46.3501V17H45.0901V7.06H49.6541ZM49.3881 12.142C50.1441 12.142 50.6807 11.974 50.9981 11.638C51.3247 11.2927 51.4881 10.8167 51.4881 10.21C51.4881 9.60333 51.3247 9.132 50.9981 8.796C50.6807 8.45067 50.1441 8.278 49.3881 8.278H46.3501V12.142H49.3881ZM61.5243 7.06H62.7843V17H61.5243V12.562H55.7563V17H54.4963V7.06H55.7563V11.358H61.5243V7.06ZM70.0148 6.836C70.8174 6.836 71.5361 7.02267 72.1708 7.396C72.8054 7.76 73.3001 8.29667 73.6548 9.006C74.0188 9.71533 74.2008 10.5647 74.2008 11.554V12.506C74.2008 13.514 74.0188 14.3727 73.6548 15.082C73.3001 15.782 72.8054 16.314 72.1708 16.678C71.5361 17.042 70.8174 17.224 70.0148 17.224H68.8668C68.0641 17.224 67.3454 17.042 66.7108 16.678C66.0761 16.314 65.5768 15.782 65.2128 15.082C64.8581 14.3727 64.6808 13.514 64.6808 12.506V11.554C64.6808 10.546 64.8581 9.692 65.2128 8.992C65.5768 8.28267 66.0761 7.746 66.7108 7.382C67.3454 7.018 68.0641 6.836 68.8668 6.836H70.0148ZM72.9408 11.666C72.9408 10.5927 72.6654 9.72 72.1148 9.048C71.5734 8.376 70.6821 8.04 69.4408 8.04C68.1994 8.04 67.3034 8.376 66.7528 9.048C66.2114 9.72 65.9408 10.5927 65.9408 11.666V12.394C65.9408 13.458 66.2114 14.3167 66.7528 14.97C67.3034 15.614 68.1994 15.936 69.4408 15.936C70.6821 15.936 71.5734 15.614 72.1148 14.97C72.6654 14.3167 72.9408 13.458 72.9408 12.394V11.666ZM82.3088 7.06V8.264H79.0888V17H77.8288V8.264H74.6088V7.06H82.3088ZM88.0617 6.836C88.8643 6.836 89.583 7.02267 90.2177 7.396C90.8523 7.76 91.347 8.29667 91.7017 9.006C92.0657 9.71533 92.2477 10.5647 92.2477 11.554V12.506C92.2477 13.514 92.0657 14.3727 91.7017 15.082C91.347 15.782 90.8523 16.314 90.2177 16.678C89.583 17.042 88.8643 17.224 88.0617 17.224H86.9137C86.111 17.224 85.3923 17.042 84.7577 16.678C84.123 16.314 83.6237 15.782 83.2597 15.082C82.905 14.3727 82.7277 13.514 82.7277 12.506V11.554C82.7277 10.546 82.905 9.692 83.2597 8.992C83.6237 8.28267 84.123 7.746 84.7577 7.382C85.3923 7.018 86.111 6.836 86.9137 6.836H88.0617ZM90.9877 11.666C90.9877 10.5927 90.7123 9.72 90.1617 9.048C89.6203 8.376 88.729 8.04 87.4877 8.04C86.2463 8.04 85.3503 8.376 84.7997 9.048C84.2583 9.72 83.9877 10.5927 83.9877 11.666V12.394C83.9877 13.458 84.2583 14.3167 84.7997 14.97C85.3503 15.614 86.2463 15.936 87.4877 15.936C88.729 15.936 89.6203 15.614 90.1617 14.97C90.7123 14.3167 90.9877 13.458 90.9877 12.394V11.666ZM98.8911 15.796H104.043V17H97.6311V7.06H98.8911V15.796ZM112.762 17L111.656 13.864H107.246L106.14 17H104.81L108.296 7.06H110.606L114.092 17H112.762ZM107.666 12.66H111.236L109.696 8.264H109.206L107.666 12.66ZM121.171 11.582C121.759 11.7407 122.207 12.044 122.515 12.492C122.823 12.9307 122.977 13.4487 122.977 14.046C122.977 14.746 122.804 15.32 122.459 15.768C122.113 16.2067 121.707 16.524 121.241 16.72C120.774 16.9067 120.345 17 119.953 17H114.927V7.06H119.323C120.321 7.06 121.082 7.27933 121.605 7.718C122.137 8.15667 122.403 8.79133 122.403 9.622C122.403 10.0233 122.291 10.406 122.067 10.77C121.843 11.134 121.544 11.4047 121.171 11.582ZM116.187 8.264V11.12H119.253C120.466 11.12 121.073 10.644 121.073 9.692C121.073 8.74 120.466 8.264 119.253 8.264H116.187ZM119.547 15.796C120.284 15.796 120.816 15.628 121.143 15.292C121.479 14.9467 121.647 14.508 121.647 13.976C121.647 13.5467 121.507 13.164 121.227 12.828C120.947 12.492 120.419 12.324 119.645 12.324H116.187V15.796H119.547Z" fill="#F0F0F0"/>
</svg>
