<svg width="300" height="300" viewBox="-40 -40 160 160" xmlns="http://www.w3.org/2000/svg">
  <!-- Main shape -->
  <g>
    <path d="M12.7888 12.7274L0.645474 24.3514C-0.538308 25.4846 -0.0149716 27.4774 1.57283 27.8827L7.72007 29.4519C7.71235 29.4887 7.72812 29.514 7.76993 29.5264C15.2979 31.9539 15.5356 36.6037 15.2324 38.778C12.266 49.4511 14.8407 61.3706 23.0567 69.9536C35.3836 82.8312 55.7687 83.3501 68.7338 71.172L56.1699 58.0468C50.409 63.2556 41.5118 62.9642 36.1065 57.3173C30.7011 51.6705 30.7986 42.7691 36.2541 37.2412L12.7888 12.7274Z" fill="white" />
    <path d="M12.7888 12.7274L24.9318 1.10371C26.1156 -0.0294488 28.0837 0.580438 28.4192 2.18442L29.7184 8.39429C29.7555 8.38816 29.7801 8.40502 29.7907 8.44734C31.8872 16.0749 36.523 16.5148 38.7081 16.3068C49.5004 13.8097 61.2957 16.9027 69.5115 25.4855C81.8383 38.3631 81.4664 58.7512 68.7338 71.172L56.1699 58.0468C61.6252 52.5188 61.7225 43.6177 56.3172 37.9709C50.912 32.3242 42.0151 32.0326 36.2541 37.2412L12.7888 12.7274Z" fill="white" />
  </g>

  <!-- Orbiting circle -->
  <circle cx="39.5" cy="-16" r="8.5" fill="white">
    <!-- Orbit distance adjusted by changing cy significantly -->
    <animateTransform attributeName="transform" type="rotate" from="0 39.5 40" to="360 39.5 40" dur="4s" repeatCount="indefinite"/>
    <!-- Color transition -->
    <animate attributeName="fill" values="#FFFFFF; #1089FF; #FFFFFF" dur="2s" repeatCount="indefinite"/>
  </circle>
</svg>
