<svg width="148" height="26" viewBox="0 0 148 26" fill="none" xmlns="http://www.w3.org/2000/svg">
<path d="M20.0099 2.62604C20.0099 4.07636 21.1856 5.25208 22.6359 5.25208C24.0862 5.25208 25.262 4.07636 25.262 2.62604C25.262 1.17572 24.0862 0 22.6359 0C21.1856 0 20.0099 1.17572 20.0099 2.62604Z" fill="url(#paint0_linear_961_2238)"/>
<path fill-rule="evenodd" clip-rule="evenodd" d="M7.74263 0.653313L0.200454 7.87294C-0.167173 8.22485 -0.00464949 8.84373 0.488445 8.9696L2.39749 9.45692C2.39509 9.46835 2.39999 9.4762 2.41297 9.48005C4.75079 10.2339 4.82462 11.6779 4.73047 12.3531C3.80925 15.6677 4.60883 19.3693 7.16031 22.0348C10.9885 26.034 17.3191 26.1951 21.3455 22.4132C25.2996 18.5559 25.4151 12.2243 21.587 8.22514C19.0355 5.55973 15.3725 4.5992 12.0209 5.37467C11.3423 5.43928 9.90266 5.30265 9.25158 2.9339C9.2483 2.92075 9.24066 2.91552 9.22913 2.91742L8.82566 0.988933C8.72145 0.490811 8.11026 0.301409 7.74263 0.653313ZM17.4437 18.3371C19.1379 16.6204 19.1681 13.8561 17.4895 12.1025C15.8108 10.3489 13.0479 10.2583 11.2588 11.8759C9.56459 13.5926 9.53431 16.357 11.2129 18.1106C12.8916 19.8642 15.6546 19.9547 17.4437 18.3371Z" fill="url(#paint1_linear_961_2238)"/>
<path d="M145.826 13.9382C147.275 14.3258 148 15.522 148 16.9036C148 19.65 145.523 20.4587 144.36 20.4587H138.312V8.49609H143.602C146.011 8.49609 147.309 9.57441 147.309 11.5794C147.309 12.5398 146.736 13.5002 145.826 13.9382ZM143.518 9.94509H139.828V13.3822H143.518C145.439 13.3822 145.708 12.405 145.708 11.6637C145.708 10.9223 145.439 9.94509 143.518 9.94509ZM143.872 19.0097C145.792 19.0097 146.399 17.9651 146.399 16.8194C146.399 16.078 146.096 14.8312 143.99 14.8312H139.828V19.0097H143.872Z" fill="#F0F0F0"/>
<path d="M135.707 20.4587L134.376 16.6846H129.068L127.737 20.4587H126.137L130.332 8.49609H133.112L137.307 20.4587H135.707ZM129.574 15.2356H133.87L132.017 9.94509H131.427L129.574 15.2356Z" fill="#F0F0F0"/>
<path d="M119.013 19.0097H125.214V20.4587H117.497V8.49609H119.013V19.0097Z" fill="#F0F0F0"/>
<path d="M105.98 8.22656C108.844 8.22656 111.018 10.2316 111.018 13.9046V15.0503C111.018 18.7739 108.844 20.7283 105.98 20.7283H104.598C101.734 20.7283 99.5605 18.7739 99.5605 15.0503V13.9046C99.5605 10.181 101.734 8.22656 104.598 8.22656H105.98ZM109.501 14.9155V14.0394C109.501 11.7311 108.49 9.67555 105.289 9.67555C102.088 9.67555 101.077 11.7311 101.077 14.0394V14.9155C101.077 17.2238 102.088 19.1782 105.289 19.1782C108.49 19.1782 109.501 17.2238 109.501 14.9155Z" fill="#F0F0F0"/>
<path d="M99.0568 8.49609V9.94509H95.1816V20.4587H93.6653V9.94509H89.79V8.49609H99.0568Z" fill="#F0F0F0"/>
<path d="M84.2612 8.22656C87.1255 8.22656 89.2989 10.2316 89.2989 13.9046V15.0503C89.2989 18.7739 87.1255 20.7283 84.2612 20.7283H82.8796C80.0153 20.7283 77.8418 18.7739 77.8418 15.0503V13.9046C77.8418 10.181 80.0153 8.22656 82.8796 8.22656H84.2612ZM87.7826 14.9155V14.0394C87.7826 11.7311 86.7716 9.67555 83.5704 9.67555C80.3691 9.67555 79.3582 11.7311 79.3582 14.0394V14.9155C79.3582 17.2238 80.3691 19.1782 83.5704 19.1782C86.7716 19.1782 87.7826 17.2238 87.7826 14.9155Z" fill="#F0F0F0"/>
<path d="M74.043 8.49609H75.5594V20.4587H74.043V15.1176H67.1013V20.4587H65.585V8.49609H67.1013V13.6687H74.043V8.49609Z" fill="#F0F0F0"/>
<path d="M59.7573 8.49609C61.6612 8.49609 63.5652 9.49017 63.5652 12.2871C63.5652 15.2356 61.6612 16.0612 59.7573 16.0612H55.781V20.4587H54.2646V8.49609H59.7573ZM59.4372 14.6122C61.358 14.6122 61.9645 13.635 61.9645 12.2871C61.9645 10.9392 61.358 9.96193 59.4372 9.96193H55.781V14.6122H59.4372Z" fill="#F0F0F0"/>
<path d="M45.5117 8.49609H47.0281V20.4587H45.5117V8.49609Z" fill="#F0F0F0"/>
<path d="M42.2322 20.4587L40.9011 16.6846H35.5938L34.2627 20.4587H32.6621L36.8574 8.49609H39.6375L43.8328 20.4587H42.2322ZM36.0993 15.2356H40.3957L38.5423 9.94509H37.9526L36.0993 15.2356Z" fill="#F0F0F0"/>
<defs>
<linearGradient id="paint0_linear_961_2238" x1="-17.9154" y1="-7.76173" x2="46.92" y2="25.3878" gradientUnits="userSpaceOnUse">
<stop offset="0.19" stop-color="#1254FF"/>
<stop offset="0.987245" stop-color="#2EF2FF"/>
</linearGradient>
<linearGradient id="paint1_linear_961_2238" x1="-17.9154" y1="-7.76173" x2="46.92" y2="25.3878" gradientUnits="userSpaceOnUse">
<stop offset="0.19" stop-color="#1254FF"/>
<stop offset="0.987245" stop-color="#2EF2FF"/>
</linearGradient>
</defs>
</svg>
